<svg width="294" height="186" viewBox="0 0 294 186" fill="none" xmlns="http://www.w3.org/2000/svg">
<rect x="1" width="262" height="149" rx="8" fill="#16246C"/>
<g filter="url(#filter0_d_64_5371)">
<rect x="19.6875" y="12.8594" width="262" height="149" rx="8" transform="rotate(2.7245 19.6875 12.8594)" fill="white"/>
<rect x="20.1632" y="13.3826" width="261" height="148" rx="7.5" transform="rotate(2.7245 20.1632 13.3826)" stroke="#E5E5E5"/>
<rect x="64.1221" y="61.2195" width="18" height="18" rx="3.27083" transform="rotate(2.7245 64.1221 61.2195)" fill="#2945CE"/>
<rect x="127.624" y="125.811" width="17" height="17" rx="2.77083" transform="rotate(2.7245 127.624 125.811)" fill="white" stroke="#E5E5E5"/>
<rect x="86.0972" y="62.2653" width="18" height="18" rx="3.27083" transform="rotate(2.7245 86.0972 62.2653)" fill="#1F349D"/>
<rect x="105.173" y="124.242" width="18" height="18" rx="3.27083" transform="rotate(2.7245 105.173 124.242)" fill="#F1F4FE"/>
<rect x="43.1458" y="60.2213" width="18" height="18" rx="3.27083" transform="rotate(2.7245 43.1458 60.2213)" fill="#1A1A1A"/>
<rect x="40.2463" y="121.152" width="18" height="18" rx="3.27083" transform="rotate(2.7245 40.2463 121.152)" fill="#1A1A1A"/>
<rect x="108.072" y="63.311" width="18" height="18" rx="3.27083" transform="rotate(2.7245 108.072 63.311)" fill="#8196FF"/>
<rect x="61.2227" y="122.151" width="18" height="18" rx="3.27083" transform="rotate(2.7245 61.2227 122.151)" fill="#666666"/>
<rect x="130.048" y="64.3568" width="18" height="18" rx="3.27083" transform="rotate(2.7245 130.048 64.3568)" fill="#E5E5E5"/>
<rect x="83.1978" y="123.196" width="18" height="18" rx="3.27083" transform="rotate(2.7245 83.1978 123.196)" fill="#E5E5E5"/>
<path d="M59.4668 49.9856L59.8661 41.595L62.7308 41.7314C63.7137 41.7781 64.5124 41.9924 65.127 42.374C65.7499 42.748 66.1982 43.2579 66.4718 43.9036C66.7538 44.5418 66.8746 45.2844 66.8343 46.1314C66.794 46.9784 66.603 47.7102 66.2613 48.3266C65.928 48.9355 65.4333 49.4005 64.7773 49.7217C64.1297 50.0353 63.3144 50.1687 62.3315 50.1219L59.4668 49.9856ZM61.0638 48.7401L62.3224 48.7999C63.0256 48.8334 63.5863 48.748 64.0044 48.5436C64.423 48.3313 64.7303 48.0175 64.9262 47.6024C65.1226 47.1792 65.2352 46.664 65.2641 46.0567C65.2926 45.4574 65.2292 44.9378 65.074 44.4979C64.9187 44.058 64.6428 43.7125 64.2463 43.4614C63.8498 43.2102 63.2999 43.0679 62.5967 43.0345L61.3381 42.9746L61.0638 48.7401ZM70.562 50.6577C69.9627 50.6292 69.4374 50.476 68.9861 50.1983C68.5348 49.9205 68.1883 49.5436 67.9467 49.0676C67.705 48.5916 67.5987 48.0499 67.6276 47.4426C67.6568 46.8273 67.8107 46.286 68.0893 45.8187C68.3758 45.3518 68.7531 44.9973 69.2211 44.7553C69.6975 44.5057 70.2473 44.3957 70.8706 44.4253C71.454 44.4531 71.9633 44.6055 72.3986 44.8825C72.834 45.1595 73.1648 45.5276 73.3913 45.9869C73.6261 46.4386 73.7305 46.9361 73.7047 47.4795C73.7005 47.5674 73.6921 47.6591 73.6796 47.7546C73.675 47.8505 73.6662 47.9502 73.6533 48.0537L69.1344 47.8387C69.1443 48.3037 69.2869 48.6749 69.562 48.9522C69.8451 49.23 70.1944 49.3788 70.6099 49.3986C70.9216 49.4134 71.1845 49.3578 71.3988 49.2319C71.6214 49.0983 71.7899 48.9221 71.9045 48.7033L73.4627 48.7775C73.3329 49.1477 73.1288 49.4824 72.8503 49.7815C72.5801 50.073 72.2491 50.2975 71.8571 50.455C71.4732 50.613 71.0415 50.6805 70.562 50.6577ZM70.8113 45.6719C70.4357 45.654 70.099 45.7461 69.801 45.9482C69.5035 46.1423 69.3045 46.4532 69.204 46.8809L72.1647 47.0218C72.1593 46.6291 72.0303 46.3106 71.7777 46.0663C71.525 45.822 71.2029 45.6906 70.8113 45.6719ZM74.8474 50.7175L75.0692 46.0547L74.2542 46.016L74.3152 44.7334L75.1303 44.7722L75.1634 44.077C75.1976 43.3578 75.4017 42.8549 75.7758 42.5684C76.1578 42.2822 76.6605 42.154 77.2837 42.1836L77.943 42.215L77.8808 43.5215L77.4613 43.5016C77.1976 43.489 77.0073 43.532 76.8905 43.6306C76.7737 43.7291 76.7094 43.9023 76.6976 44.15L76.6645 44.8452L77.9471 44.9062L77.8861 46.1888L76.6035 46.1278L76.3816 50.7905L74.8474 50.7175ZM80.4158 51.1266C79.9043 51.1023 79.4886 51.0024 79.1686 50.827C78.8489 50.6436 78.6157 50.4122 78.4688 50.133C78.3219 49.8537 78.2562 49.5502 78.2718 49.2226C78.2981 48.6712 78.5351 48.234 78.983 47.9109C79.4309 47.5878 80.0863 47.4468 80.9493 47.4879L82.4596 47.5597L82.4665 47.4159C82.4858 47.0084 82.3842 46.7032 82.1616 46.5004C81.939 46.2976 81.6559 46.188 81.3123 46.1716C81.0006 46.1568 80.7253 46.2198 80.4864 46.3606C80.2478 46.4934 80.0937 46.7023 80.0241 46.9873L78.5258 46.916C78.5862 46.4864 78.748 46.1177 79.0109 45.8098C79.2818 45.5024 79.621 45.2742 80.0286 45.1254C80.4365 44.9686 80.8882 44.902 81.3836 44.9256C82.2306 44.9659 82.8878 45.2094 83.3551 45.6562C83.8224 46.1029 84.0376 46.7138 84.0007 47.4889L83.8267 51.1448L82.5202 51.0826L82.422 50.1168C82.231 50.4281 81.9707 50.68 81.6412 50.8726C81.3197 51.0655 80.9112 51.1502 80.4158 51.1266ZM80.8204 49.9445C81.2599 49.9654 81.6064 49.8378 81.8598 49.5615C82.1212 49.2856 82.2939 48.9374 82.378 48.5169L81.0715 48.4548C80.664 48.4354 80.3687 48.4974 80.1856 48.6409C80.003 48.7763 79.9065 48.952 79.8963 49.1677C79.8853 49.3995 79.9646 49.5834 80.1343 49.7197C80.304 49.8559 80.5327 49.9308 80.8204 49.9445ZM87.2412 51.4514C86.4981 51.4161 85.9338 51.1569 85.5483 50.6741C85.1708 50.1916 85.0033 49.5028 85.0459 48.6079L85.2056 45.2517L86.7279 45.3241L86.575 48.5365C86.5507 49.0479 86.636 49.4444 86.8308 49.726C87.0256 50.0075 87.3468 50.159 87.7943 50.1803C88.2178 50.2004 88.5726 50.0651 88.8588 49.7744C89.1529 49.4841 89.3129 49.0672 89.3388 48.5238L89.4848 45.4553L91.0191 45.5283L90.7361 51.4736L89.3817 51.4091L89.3097 50.3966C89.1092 50.7394 88.8282 51.0064 88.4667 51.1974C88.1132 51.3888 87.7047 51.4735 87.2412 51.4514ZM92.0389 51.5356L92.4496 42.9053L93.9838 42.9783L93.5731 51.6086L92.0389 51.5356ZM97.5176 51.7963C96.8943 51.7666 96.4021 51.591 96.0409 51.2695C95.6798 50.948 95.5177 50.3996 95.5546 49.6245L95.6778 47.0355L94.6589 46.987L94.72 45.7044L95.7388 45.7529L95.9945 44.1673L97.349 44.2317L97.2731 45.8259L98.8793 45.9024L98.8182 47.1849L97.2121 47.1085L97.0883 49.7095C97.0746 49.9972 97.125 50.1998 97.2396 50.3174C97.3625 50.4274 97.5758 50.4896 97.8794 50.504L98.6226 50.5394L98.5604 51.8459L97.5176 51.7963ZM104.874 52.1464C104.251 52.1167 103.759 51.9411 103.398 51.6196C103.037 51.2981 102.874 50.7497 102.911 49.9746L103.034 47.3855L102.016 47.3371L102.077 46.0545L103.096 46.103L103.351 44.5174L104.706 44.5818L104.63 46.176L106.236 46.2524L106.175 47.535L104.569 47.4586L104.445 50.0596C104.431 50.3473 104.482 50.5499 104.596 50.6675C104.719 50.7775 104.932 50.8397 105.236 50.8541L105.979 50.8895L105.917 52.196L104.874 52.1464ZM106.998 52.2474L107.409 43.6172L108.943 43.6902L108.772 47.2861C108.987 46.968 109.267 46.7251 109.612 46.5572C109.964 46.3818 110.36 46.3045 110.8 46.3255C111.535 46.3604 112.091 46.6192 112.469 47.1017C112.854 47.5845 113.026 48.2735 112.983 49.1685L112.823 52.5247L111.301 52.4522L111.454 49.2398C111.478 48.7284 111.393 48.3319 111.198 48.0503C111.011 47.7691 110.698 47.6181 110.259 47.5972C109.827 47.5766 109.46 47.7114 109.158 48.0013C108.864 48.2917 108.704 48.7085 108.678 49.2519L108.532 52.3204L106.998 52.2474ZM116.9 52.8628C116.301 52.8343 115.776 52.6812 115.324 52.4034C114.873 52.1256 114.527 51.7487 114.285 51.2727C114.043 50.7967 113.937 50.255 113.966 49.6477C113.995 49.0324 114.149 48.4911 114.427 48.0238C114.714 47.5569 115.091 47.2024 115.559 46.9604C116.036 46.7108 116.586 46.6008 117.209 46.6304C117.792 46.6582 118.301 46.8106 118.737 47.0876C119.172 47.3646 119.503 47.7327 119.729 48.192C119.964 48.6437 120.069 49.1412 120.043 49.6846C120.039 49.7725 120.03 49.8642 120.018 49.9597C120.013 50.0556 120.004 50.1553 119.992 50.2588L115.473 50.0438C115.483 50.5088 115.625 50.88 115.9 51.1574C116.183 51.4351 116.533 51.5839 116.948 51.6037C117.26 51.6185 117.523 51.5629 117.737 51.437C117.96 51.3034 118.128 51.1272 118.243 50.9084L119.801 50.9826C119.671 51.3528 119.467 51.6875 119.188 51.9866C118.918 52.2781 118.587 52.5026 118.195 52.6601C117.811 52.8181 117.38 52.8856 116.9 52.8628ZM117.15 47.877C116.774 47.8592 116.437 47.9513 116.139 48.1533C115.842 48.3474 115.643 48.6583 115.542 49.086L118.503 49.2269C118.498 48.8342 118.369 48.5157 118.116 48.2714C117.863 48.0271 117.541 47.8957 117.15 47.877ZM120.91 52.9095L121.193 46.9642L122.547 47.0286L122.641 47.838C122.846 47.5595 123.109 47.3437 123.429 47.1907C123.757 47.0301 124.128 46.9597 124.544 46.9795C125.463 47.0232 126.097 47.4098 126.447 48.1393C126.678 47.8219 126.978 47.5759 127.347 47.4012C127.724 47.2269 128.128 47.15 128.559 47.1706C129.334 47.2075 129.919 47.4675 130.312 47.9508C130.706 48.434 130.881 49.1231 130.839 50.0181L130.679 53.3743L129.145 53.3013L129.297 50.089C129.322 49.5775 129.24 49.1812 129.054 48.9C128.875 48.6192 128.582 48.4691 128.174 48.4497C127.759 48.4299 127.416 48.5658 127.146 48.8573C126.883 49.1492 126.739 49.5668 126.713 50.1102L126.567 53.1787L125.033 53.1057L125.186 49.8933C125.21 49.3819 125.129 48.9856 124.942 48.7044C124.755 48.4232 124.454 48.2727 124.039 48.2529C123.631 48.2335 123.292 48.3696 123.022 48.6611C122.76 48.9529 122.616 49.3706 122.59 49.9139L122.444 52.9825L120.91 52.9095ZM134.745 53.712C134.146 53.6835 133.62 53.5303 133.169 53.2526C132.718 52.9748 132.371 52.5979 132.13 52.1219C131.888 51.6459 131.782 51.1042 131.811 50.4969C131.84 49.8816 131.994 49.3403 132.272 48.873C132.559 48.4061 132.936 48.0516 133.404 47.8096C133.881 47.56 134.43 47.45 135.054 47.4796C135.637 47.5074 136.146 47.6598 136.582 47.9368C137.017 48.2138 137.348 48.5819 137.574 49.0412C137.809 49.4929 137.914 49.9904 137.888 50.5338C137.883 50.6217 137.875 50.7134 137.863 50.8089C137.858 50.9048 137.849 51.0045 137.836 51.108L133.317 50.893C133.327 51.358 133.47 51.7291 133.745 52.0065C134.028 52.2843 134.377 52.4331 134.793 52.4529C135.105 52.4677 135.368 52.4121 135.582 52.2862C135.804 52.1526 135.973 51.9764 136.087 51.7576L137.646 51.8318C137.516 52.202 137.312 52.5367 137.033 52.8358C136.763 53.1273 136.432 53.3518 136.04 53.5093C135.656 53.6673 135.225 53.7348 134.745 53.712ZM134.994 48.7262C134.619 48.7083 134.282 48.8004 133.984 49.0025C133.686 49.1966 133.487 49.5075 133.387 49.9352L136.348 50.0761C136.342 49.6834 136.213 49.3649 135.961 49.1206C135.708 48.8763 135.386 48.7449 134.994 48.7262Z" fill="#3355FF"/>
<path d="M56.5674 110.917L56.9666 102.526L59.8314 102.662C60.8143 102.709 61.613 102.923 62.2276 103.305C62.8505 103.679 63.2988 104.189 63.5724 104.835C63.8544 105.473 63.9752 106.215 63.9349 107.062C63.8946 107.909 63.7036 108.641 63.3619 109.258C63.0286 109.867 62.5339 110.332 61.8779 110.653C61.2303 110.966 60.415 111.1 59.4321 111.053L56.5674 110.917ZM58.1644 109.671L59.4229 109.731C60.1261 109.764 60.6868 109.679 61.105 109.475C61.5236 109.262 61.8309 108.949 62.0268 108.533C62.2231 108.11 62.3358 107.595 62.3647 106.988C62.3932 106.388 62.3298 105.869 62.1745 105.429C62.0193 104.989 61.7434 104.644 61.3469 104.392C60.9504 104.141 60.4005 103.999 59.6973 103.966L58.4387 103.906L58.1644 109.671ZM66.8236 111.549C66.3122 111.524 65.8964 111.425 65.5764 111.249C65.2568 111.066 65.0235 110.834 64.8766 110.555C64.7297 110.276 64.6641 109.972 64.6797 109.645C64.7059 109.093 64.9429 108.656 65.3908 108.333C65.8387 108.01 66.4941 107.869 67.3571 107.91L68.8674 107.982L68.8743 107.838C68.8937 107.431 68.7921 107.125 68.5695 106.923C68.3468 106.72 68.0637 106.61 67.7201 106.594C67.4085 106.579 67.1332 106.642 66.8942 106.783C66.6556 106.916 66.5015 107.125 66.4319 107.41L64.9336 107.338C64.9941 106.909 65.1558 106.54 65.4187 106.232C65.6896 105.925 66.0289 105.696 66.4364 105.548C66.8443 105.391 67.296 105.324 67.7914 105.348C68.6385 105.388 69.2956 105.632 69.7629 106.078C70.2302 106.525 70.4454 107.136 70.4085 107.911L70.2346 111.567L68.928 111.505L68.8298 110.539C68.6388 110.85 68.3786 111.102 68.049 111.295C67.7275 111.488 67.319 111.572 66.8236 111.549ZM67.2282 110.367C67.6677 110.388 68.0142 110.26 68.2676 109.984C68.529 109.708 68.7018 109.36 68.7858 108.939L67.4793 108.877C67.0718 108.858 66.7765 108.92 66.5935 109.063C66.4108 109.199 66.3144 109.374 66.3041 109.59C66.2931 109.822 66.3724 110.006 66.5421 110.142C66.7119 110.278 66.9405 110.353 67.2282 110.367ZM71.4264 111.624L71.7094 105.678L73.0758 105.743L73.1666 106.865C73.4006 106.492 73.7067 106.202 74.085 105.996C74.4716 105.782 74.9166 105.687 75.42 105.711L75.343 107.329L74.9115 107.308C74.5759 107.293 74.2737 107.33 74.0051 107.422C73.7364 107.513 73.5201 107.683 73.3561 107.931C73.2001 108.18 73.1113 108.532 73.0896 108.988L72.9607 111.697L71.4264 111.624ZM75.9066 111.837L76.3173 103.207L77.8516 103.28L77.6091 108.374L79.8334 106.065L81.6553 106.152L79.0932 108.745L81.768 112.116L79.8501 112.025L77.5829 108.925L77.4409 111.91L75.9066 111.837ZM87.6798 112.397C87.0565 112.367 86.5643 112.192 86.2032 111.87C85.8421 111.549 85.68 111.001 85.7168 110.225L85.8401 107.636L84.8212 107.588L84.8822 106.305L85.9011 106.354L86.1567 104.768L87.5112 104.833L87.4353 106.427L89.0415 106.503L88.9805 107.786L87.3743 107.709L87.2505 110.31C87.2368 110.598 87.2873 110.801 87.4018 110.918C87.5247 111.028 87.738 111.09 88.0417 111.105L88.7848 111.14L88.7227 112.447L87.6798 112.397ZM89.8036 112.498L90.2143 103.868L91.7486 103.941L91.5775 107.537C91.7928 107.219 92.0727 106.976 92.4171 106.808C92.7698 106.633 93.1659 106.555 93.6054 106.576C94.3406 106.611 94.8969 106.87 95.2744 107.352C95.6599 107.835 95.8313 108.524 95.7888 109.419L95.629 112.775L94.1068 112.703L94.2596 109.491C94.284 108.979 94.1987 108.583 94.0039 108.301C93.817 108.02 93.5039 107.869 93.0644 107.848C92.6329 107.827 92.266 107.962 91.9639 108.252C91.6698 108.542 91.5098 108.959 91.4839 109.503L91.3379 112.571L89.8036 112.498ZM99.7058 113.114C99.1065 113.085 98.5812 112.932 98.1299 112.654C97.6785 112.376 97.3321 112 97.0904 111.523C96.8488 111.047 96.7424 110.506 96.7713 109.898C96.8006 109.283 96.9545 108.742 97.233 108.275C97.5195 107.808 97.8968 107.453 98.3648 107.211C98.8412 106.962 99.3911 106.852 100.014 106.881C100.598 106.909 101.107 107.061 101.542 107.338C101.978 107.615 102.309 107.984 102.535 108.443C102.77 108.894 102.874 109.392 102.848 109.935C102.844 110.023 102.836 110.115 102.823 110.211C102.819 110.306 102.81 110.406 102.797 110.51L98.2782 110.295C98.2881 110.76 98.4306 111.131 98.7057 111.408C98.9888 111.686 99.3382 111.835 99.7537 111.854C100.065 111.869 100.328 111.814 100.543 111.688C100.765 111.554 100.934 111.378 101.048 111.159L102.606 111.233C102.477 111.604 102.273 111.938 101.994 112.237C101.724 112.529 101.393 112.753 101.001 112.911C100.617 113.069 100.185 113.136 99.7058 113.114ZM99.9551 108.128C99.5795 108.11 99.2427 108.202 98.9448 108.404C98.6472 108.598 98.4482 108.909 98.3478 109.337L101.308 109.478C101.303 109.085 101.174 108.766 100.921 108.522C100.669 108.278 100.347 108.146 99.9551 108.128ZM103.715 113.16L103.998 107.215L105.353 107.279L105.446 108.089C105.652 107.81 105.914 107.594 106.234 107.442C106.562 107.281 106.934 107.211 107.349 107.23C108.268 107.274 108.903 107.661 109.252 108.39C109.484 108.073 109.784 107.827 110.153 107.652C110.529 107.478 110.933 107.401 111.365 107.421C112.14 107.458 112.724 107.718 113.118 108.202C113.511 108.685 113.687 109.374 113.644 110.269L113.484 113.625L111.95 113.552L112.103 110.34C112.127 109.828 112.046 109.432 111.859 109.151C111.68 108.87 111.387 108.72 110.98 108.7C110.564 108.681 110.221 108.817 109.951 109.108C109.689 109.4 109.545 109.818 109.519 110.361L109.373 113.429L107.839 113.356L107.992 110.144C108.016 109.633 107.935 109.236 107.748 108.955C107.561 108.674 107.26 108.523 106.844 108.504C106.437 108.484 106.098 108.62 105.828 108.912C105.566 109.204 105.422 109.621 105.396 110.165L105.25 113.233L103.715 113.16ZM117.551 113.963C116.951 113.934 116.426 113.781 115.975 113.503C115.523 113.226 115.177 112.849 114.935 112.373C114.694 111.897 114.587 111.355 114.616 110.748C114.645 110.132 114.799 109.591 115.078 109.124C115.364 108.657 115.742 108.302 116.21 108.06C116.686 107.811 117.236 107.701 117.859 107.73C118.443 107.758 118.952 107.911 119.387 108.188C119.823 108.465 120.153 108.833 120.38 109.292C120.615 109.744 120.719 110.241 120.693 110.785C120.689 110.872 120.681 110.964 120.668 111.06C120.664 111.156 120.655 111.255 120.642 111.359L116.123 111.144C116.133 111.609 116.275 111.98 116.551 112.257C116.834 112.535 117.183 112.684 117.599 112.704C117.91 112.718 118.173 112.663 118.387 112.537C118.61 112.403 118.779 112.227 118.893 112.008L120.451 112.083C120.322 112.453 120.117 112.787 119.839 113.087C119.569 113.378 119.238 113.603 118.846 113.76C118.462 113.918 118.03 113.986 117.551 113.963ZM117.8 108.977C117.424 108.959 117.088 109.051 116.79 109.253C116.492 109.447 116.293 109.758 116.193 110.186L119.153 110.327C119.148 109.934 119.019 109.616 118.766 109.371C118.514 109.127 118.191 108.996 117.8 108.977Z" fill="#1A1A1A"/>
<g clip-path="url(#clip0_64_5371)">
<path d="M55.995 39.8991C56.054 39.9546 56.0935 40.0276 56.1076 40.1073C56.1217 40.187 56.1096 40.2691 56.0731 40.3414C54.8046 42.8564 52.2286 46.2928 50.3786 48.0594C49.8601 48.5535 49.2322 48.9183 48.5461 49.124C48.5246 49.2934 48.482 49.5249 48.3953 49.7686C48.2213 50.2551 47.8429 50.8528 47.0537 51.0112C46.2899 51.1551 45.5056 51.1514 44.7431 51.0003C44.6014 50.971 44.4623 50.9305 44.3269 50.8792C44.2016 50.8344 44.0861 50.766 43.9866 50.6775C43.9212 50.6163 43.8722 50.5396 43.8441 50.4545C43.8094 50.3454 43.8161 50.2273 43.8629 50.1228C43.9428 49.9426 44.1131 49.8493 44.2243 49.8006C44.5265 49.667 44.7087 49.4835 44.9033 49.2127C44.9796 49.1082 45.0517 48.9967 45.1351 48.8693L45.2298 48.7252C45.3521 48.5395 45.4933 48.3322 45.6691 48.1093C46.091 47.5745 46.6018 47.4592 47.0091 47.5003C47.1032 47.5101 47.1902 47.5277 47.2681 47.5487C47.3206 47.4221 47.388 47.2691 47.468 47.1017C47.6856 46.6473 48.0116 46.0621 48.431 45.594C50.1564 43.6714 53.282 41.1651 55.55 39.8479C55.6198 39.8074 55.7008 39.7905 55.781 39.7998C55.8612 39.809 55.9362 39.8438 55.995 39.8991V39.8991Z" fill="#3355FF"/>
</g>
<g clip-path="url(#clip1_64_5371)">
<path d="M53.0954 100.83C53.1544 100.886 53.1939 100.959 53.2079 101.038C53.222 101.118 53.2099 101.2 53.1735 101.272C51.905 103.787 49.329 107.224 47.4789 108.99C46.9604 109.485 46.3326 109.849 45.6465 110.055C45.6249 110.224 45.5823 110.456 45.4957 110.7C45.3216 111.186 44.9433 111.784 44.1541 111.942C43.3903 112.086 42.6059 112.082 41.8435 111.931C41.7018 111.902 41.5626 111.862 41.4273 111.81C41.3019 111.765 41.1864 111.697 41.087 111.609C41.0215 111.547 40.9725 111.471 40.9444 111.386C40.9098 111.276 40.9164 111.158 40.9632 111.054C41.0431 110.874 41.2135 110.78 41.3247 110.732C41.6269 110.598 41.809 110.415 42.0036 110.144C42.0799 110.039 42.1521 109.928 42.2355 109.8L42.3302 109.656C42.4524 109.471 42.5937 109.263 42.7695 109.04C43.1914 108.506 43.7022 108.39 44.1094 108.431C44.2036 108.441 44.2906 108.459 44.3684 108.48C44.421 108.353 44.4883 108.2 44.5684 108.033C44.786 107.578 45.1119 106.993 45.5314 106.525C47.2567 104.602 50.3824 102.096 52.6503 100.779C52.7201 100.738 52.8012 100.722 52.8813 100.731C52.9615 100.74 53.0366 100.775 53.0954 100.83V100.83Z" fill="#1A1A1A"/>
</g>
<rect x="169.073" y="73.5252" width="93.1594" height="49.4459" rx="7.5" transform="rotate(2.7245 169.073 73.5252)" stroke="#3355FF"/>
<path d="M185.344 96.3632C184.497 96.3229 183.778 96.1085 183.188 95.72C182.598 95.3236 182.155 94.7939 181.858 94.131C181.561 93.4602 181.434 92.6972 181.474 91.8422C181.515 90.9872 181.715 90.2398 182.073 89.6002C182.432 88.9605 182.924 88.4713 183.549 88.1326C184.174 87.7939 184.91 87.6448 185.757 87.6851C186.763 87.733 187.575 88.0239 188.19 88.5577C188.814 89.084 189.184 89.8024 189.301 90.713L187.611 90.6325C187.528 90.1721 187.322 89.8059 186.99 89.5338C186.667 89.2541 186.226 89.101 185.666 89.0744C184.891 89.0375 184.272 89.2723 183.807 89.7788C183.342 90.2852 183.088 90.998 183.044 91.9169C183.001 92.8359 183.186 93.5695 183.6 94.1178C184.015 94.6582 184.61 94.9468 185.385 94.9837C185.945 95.0103 186.398 94.9117 186.745 94.688C187.1 94.4566 187.34 94.1276 187.465 93.7011L189.155 93.7815C188.954 94.6369 188.518 95.2929 187.848 95.7496C187.185 96.2066 186.351 96.4112 185.344 96.3632ZM190.08 96.4445L190.363 90.4992L191.73 90.5642L191.82 91.6858C192.054 91.3125 192.361 91.0227 192.739 90.8165C193.125 90.6026 193.57 90.5077 194.074 90.5316L193.997 92.1498L193.565 92.1293C193.23 92.1133 192.928 92.151 192.659 92.2423C192.39 92.3336 192.174 92.5035 192.01 92.752C191.854 93.0009 191.765 93.3531 191.743 93.8086L191.615 96.5175L190.08 96.4445ZM197.337 96.934C196.738 96.9055 196.212 96.7523 195.761 96.4745C195.31 96.1968 194.963 95.8199 194.722 95.3439C194.48 94.8678 194.374 94.3262 194.402 93.7189C194.432 93.1035 194.586 92.5623 194.864 92.095C195.151 91.6281 195.528 91.2736 195.996 91.0316C196.472 90.7819 197.022 90.6719 197.646 90.7016C198.229 90.7294 198.738 90.8817 199.174 91.1587C199.609 91.4358 199.94 91.8039 200.166 92.2632C200.401 92.7148 200.505 93.2124 200.48 93.7558C200.475 93.8437 200.467 93.9354 200.454 94.0309C200.45 94.1268 200.441 94.2265 200.428 94.33L195.909 94.1149C195.919 94.5799 196.062 94.9511 196.337 95.2285C196.62 95.5063 196.969 95.6551 197.385 95.6748C197.697 95.6897 197.959 95.6341 198.174 95.5081C198.396 95.3746 198.565 95.1984 198.679 94.9796L200.238 95.0537C200.108 95.424 199.904 95.7587 199.625 96.0578C199.355 96.3492 199.024 96.5738 198.632 96.7313C198.248 96.8892 197.816 96.9568 197.337 96.934ZM197.586 91.9482C197.211 91.9303 196.874 92.0224 196.576 92.2245C196.278 92.4186 196.079 92.7294 195.979 93.1572L198.94 93.298C198.934 92.9053 198.805 92.5869 198.553 92.3426C198.3 92.0983 197.978 91.9668 197.586 91.9482ZM203.389 97.222C202.878 97.1977 202.462 97.0978 202.142 96.9224C201.823 96.739 201.589 96.5076 201.442 96.2283C201.296 95.949 201.23 95.6456 201.245 95.3179C201.272 94.7666 201.509 94.3293 201.957 94.0063C202.405 93.6832 203.06 93.5422 203.923 93.5832L205.433 93.6551L205.44 93.5113C205.46 93.1037 205.358 92.7986 205.135 92.5958C204.913 92.3929 204.63 92.2834 204.286 92.267C203.974 92.2522 203.699 92.3152 203.46 92.456C203.221 92.5888 203.067 92.7977 202.998 93.0827L201.499 93.0114C201.56 92.5818 201.722 92.2131 201.985 91.9052C202.255 91.5977 202.595 91.3696 203.002 91.2208C203.41 91.064 203.862 90.9974 204.357 91.021C205.204 91.0613 205.861 91.3048 206.329 91.7515C206.796 92.1982 207.011 92.8092 206.974 93.5843L206.8 97.2402L205.494 97.178L205.396 96.2122C205.205 96.5235 204.944 96.7754 204.615 96.968C204.293 97.1609 203.885 97.2456 203.389 97.222ZM203.794 96.0399C204.234 96.0608 204.58 95.9331 204.833 95.6569C205.095 95.381 205.268 95.0328 205.352 94.6123L204.045 94.5501C203.638 94.5307 203.342 94.5928 203.159 94.7362C202.977 94.8717 202.88 95.0473 202.87 95.2631C202.859 95.4948 202.938 95.6788 203.108 95.815C203.278 95.9512 203.506 96.0262 203.794 96.0399ZM210.559 97.419C209.936 97.3894 209.444 97.2138 209.083 96.8922C208.722 96.5707 208.559 96.0224 208.596 95.2473L208.72 92.6582L207.701 92.6097L207.762 91.3272L208.781 91.3756L209.036 89.79L210.391 89.8545L210.315 91.4487L211.921 91.5251L211.86 92.8076L210.254 92.7312L210.13 95.3323C210.116 95.6199 210.167 95.8226 210.281 95.9401C210.404 96.0501 210.618 96.1123 210.921 96.1268L211.664 96.1621L211.602 97.4687L210.559 97.419ZM215.413 97.7942C214.814 97.7656 214.288 97.6125 213.837 97.3347C213.386 97.057 213.039 96.6801 212.797 96.204C212.556 95.728 212.449 95.1863 212.478 94.579C212.508 93.9637 212.662 93.4224 212.94 92.9551C213.227 92.4882 213.604 92.1338 214.072 91.8917C214.548 91.6421 215.098 91.5321 215.721 91.5618C216.305 91.5895 216.814 91.7419 217.249 92.0189C217.685 92.2959 218.016 92.6641 218.242 93.1234C218.477 93.575 218.581 94.0726 218.555 94.6159C218.551 94.7038 218.543 94.7956 218.53 94.8911C218.526 94.987 218.517 95.0867 218.504 95.1902L213.985 94.9751C213.995 95.4401 214.138 95.8113 214.413 96.0887C214.696 96.3665 215.045 96.5152 215.461 96.535C215.772 96.5498 216.035 96.4943 216.25 96.3683C216.472 96.2347 216.641 96.0586 216.755 95.8398L218.314 95.9139C218.184 96.2842 217.98 96.6188 217.701 96.9179C217.431 97.2094 217.1 97.4339 216.708 97.5915C216.324 97.7494 215.892 97.817 215.413 97.7942ZM215.662 92.8084C215.287 92.7905 214.95 92.8826 214.652 93.0847C214.354 93.2787 214.155 93.5896 214.055 94.0173L217.015 94.1582C217.01 93.7655 216.881 93.447 216.628 93.2027C216.376 92.9585 216.054 92.827 215.662 92.8084ZM224.852 98.2434C224.277 98.216 223.764 98.0594 223.313 97.7736C222.87 97.4883 222.524 97.1074 222.274 96.631C222.033 96.147 221.927 95.5973 221.956 94.982C221.985 94.3667 222.147 93.8338 222.441 93.3832C222.735 92.9247 223.116 92.5744 223.584 92.3324C224.06 92.0907 224.586 91.9836 225.161 92.011C225.728 92.038 226.233 92.1942 226.676 92.4795C227.127 92.7653 227.473 93.1502 227.715 93.6342C227.964 94.1106 228.074 94.6565 228.045 95.2718C228.016 95.8871 227.854 96.424 227.56 96.8825C227.274 97.3335 226.893 97.6797 226.417 97.9214C225.941 98.163 225.42 98.2704 224.852 98.2434ZM224.916 96.9129C225.315 96.9319 225.67 96.8006 225.98 96.519C226.29 96.2294 226.459 95.7889 226.487 95.1976C226.515 94.6063 226.388 94.1557 226.107 93.846C225.826 93.5283 225.489 93.3601 225.098 93.3415C224.69 93.3221 224.331 93.4572 224.021 93.7468C223.719 94.0287 223.554 94.4654 223.526 95.0567C223.498 95.6481 223.621 96.1024 223.894 96.4197C224.175 96.7295 224.516 96.8938 224.916 96.9129ZM229.955 98.342L228.5 92.314L230.022 92.3865L230.85 96.7147L232.252 92.4926L233.954 92.5736L234.949 96.9098L236.195 92.6802L237.718 92.7527L235.685 98.6147L234.091 98.5388L233.032 94.0314L231.549 98.4179L229.955 98.342ZM238.13 98.7311L238.413 92.7858L239.768 92.8502L239.84 93.8628C240.04 93.52 240.317 93.2528 240.671 93.0614C241.032 92.8704 241.449 92.7861 241.92 92.8085C242.655 92.8435 243.216 93.1024 243.601 93.5853C243.987 94.0682 244.158 94.7571 244.116 95.6521L243.956 99.0083L242.422 98.9353L242.574 95.7229C242.599 95.2115 242.514 94.815 242.319 94.5334C242.124 94.2518 241.807 94.1006 241.367 94.0797C240.936 94.0591 240.573 94.194 240.279 94.4844C239.993 94.7751 239.837 95.1922 239.811 95.7355L239.665 98.8041L238.13 98.7311ZM198.344 110.854C197.72 110.824 197.228 110.648 196.867 110.327C196.506 110.005 196.344 109.457 196.381 108.682L196.504 106.093L195.485 106.044L195.546 104.762L196.565 104.81L196.82 103.225L198.175 103.289L198.099 104.883L199.705 104.96L199.644 106.242L198.038 106.166L197.914 108.767C197.901 109.054 197.951 109.257 198.066 109.375C198.188 109.485 198.402 109.547 198.705 109.561L199.449 109.597L199.386 110.903L198.344 110.854ZM200.467 110.955L200.878 102.324L202.412 102.397L202.241 105.993C202.457 105.675 202.736 105.432 203.081 105.264C203.434 105.089 203.83 105.012 204.269 105.033C205.004 105.068 205.561 105.326 205.938 105.809C206.324 106.292 206.495 106.981 206.452 107.876L206.293 111.232L204.771 111.159L204.923 107.947C204.948 107.436 204.862 107.039 204.668 106.758C204.481 106.476 204.168 106.325 203.728 106.304C203.297 106.284 202.93 106.419 202.628 106.709C202.334 106.999 202.174 107.416 202.148 107.959L202.002 111.028L200.467 110.955ZM210.37 111.57C209.77 111.541 209.245 111.388 208.794 111.111C208.342 110.833 207.996 110.456 207.754 109.98C207.513 109.504 207.406 108.962 207.435 108.355C207.464 107.74 207.618 107.198 207.897 106.731C208.183 106.264 208.561 105.91 209.029 105.668C209.505 105.418 210.055 105.308 210.678 105.338C211.261 105.365 211.771 105.518 212.206 105.795C212.641 106.072 212.972 106.44 213.199 106.899C213.434 107.351 213.538 107.848 213.512 108.392C213.508 108.48 213.5 108.571 213.487 108.667C213.482 108.763 213.474 108.862 213.461 108.966L208.942 108.751C208.952 109.216 209.094 109.587 209.369 109.865C209.653 110.142 210.002 110.291 210.417 110.311C210.729 110.326 210.992 110.27 211.206 110.144C211.429 110.011 211.597 109.834 211.712 109.616L213.27 109.69C213.14 110.06 212.936 110.395 212.658 110.694C212.388 110.985 212.057 111.21 211.665 111.367C211.281 111.525 210.849 111.593 210.37 111.57ZM210.619 106.584C210.243 106.566 209.906 106.658 209.609 106.861C209.311 107.055 209.112 107.365 209.012 107.793L211.972 107.934C211.967 107.541 211.838 107.223 211.585 106.979C211.332 106.734 211.01 106.603 210.619 106.584ZM214.379 111.617L214.662 105.671L216.017 105.736L216.11 106.545C216.316 106.267 216.578 106.051 216.898 105.898C217.226 105.737 217.598 105.667 218.013 105.687C218.932 105.73 219.566 106.117 219.916 106.846C220.147 106.529 220.448 106.283 220.816 106.108C221.193 105.934 221.597 105.857 222.029 105.878C222.804 105.915 223.388 106.175 223.781 106.658C224.175 107.141 224.35 107.83 224.308 108.725L224.148 112.082L222.614 112.009L222.767 108.796C222.791 108.285 222.71 107.888 222.523 107.607C222.344 107.326 222.051 107.176 221.643 107.157C221.228 107.137 220.885 107.273 220.615 107.564C220.353 107.856 220.209 108.274 220.183 108.817L220.037 111.886L218.502 111.813L218.655 108.6C218.68 108.089 218.598 107.693 218.412 107.412C218.225 107.13 217.924 106.98 217.508 106.96C217.1 106.941 216.762 107.077 216.491 107.368C216.229 107.66 216.085 108.078 216.059 108.621L215.913 111.69L214.379 111.617ZM228.214 112.419C227.615 112.391 227.09 112.238 226.638 111.96C226.187 111.682 225.841 111.305 225.599 110.829C225.357 110.353 225.251 109.811 225.28 109.204C225.309 108.589 225.463 108.047 225.742 107.58C226.028 107.113 226.405 106.759 226.873 106.517C227.35 106.267 227.9 106.157 228.523 106.187C229.106 106.215 229.616 106.367 230.051 106.644C230.486 106.921 230.817 107.289 231.044 107.748C231.278 108.2 231.383 108.698 231.357 109.241C231.353 109.329 231.344 109.421 231.332 109.516C231.327 109.612 231.319 109.712 231.306 109.815L226.787 109.6C226.797 110.065 226.939 110.436 227.214 110.714C227.497 110.991 227.847 111.14 228.262 111.16C228.574 111.175 228.837 111.119 229.051 110.993C229.274 110.86 229.442 110.684 229.557 110.465L231.115 110.539C230.985 110.909 230.781 111.244 230.503 111.543C230.232 111.834 229.901 112.059 229.509 112.217C229.126 112.374 228.694 112.442 228.214 112.419ZM228.464 107.433C228.088 107.416 227.751 107.508 227.453 107.71C227.156 107.904 226.957 108.215 226.856 108.642L229.817 108.783C229.812 108.391 229.683 108.072 229.43 107.828C229.177 107.583 228.855 107.452 228.464 107.433Z" fill="#3355FF"/>
</g>
<defs>
<filter id="filter0_d_64_5371" x="0.60498" y="0.859375" width="292.786" height="185.285" filterUnits="userSpaceOnUse" color-interpolation-filters="sRGB">
<feFlood flood-opacity="0" result="BackgroundImageFix"/>
<feColorMatrix in="SourceAlpha" type="matrix" values="0 0 0 0 0 0 0 0 0 0 0 0 0 0 0 0 0 0 127 0" result="hardAlpha"/>
<feOffset/>
<feGaussianBlur stdDeviation="6"/>
<feComposite in2="hardAlpha" operator="out"/>
<feColorMatrix type="matrix" values="0 0 0 0 0.121569 0 0 0 0 0.152941 0 0 0 0 0.290196 0 0 0 0.08 0"/>
<feBlend mode="normal" in2="BackgroundImageFix" result="effect1_dropShadow_64_5371"/>
<feBlend mode="normal" in="SourceGraphic" in2="effect1_dropShadow_64_5371" result="shape"/>
</filter>
<clipPath id="clip0_64_5371">
<rect width="12" height="12" fill="white" transform="translate(44.144 39.2451) rotate(2.7245)"/>
</clipPath>
<clipPath id="clip1_64_5371">
<rect width="12" height="12" fill="white" transform="translate(41.2444 100.176) rotate(2.7245)"/>
</clipPath>
</defs>
</svg>
